<mxfile host="app.diagrams.net" modified="2023-06-30T19:31:34.148Z" agent="Mozilla/5.0 (X11; Linux x86_64; rv:108.0) Gecko/20100101 Firefox/108.0" etag="XrVhr2D3zC3HDAXXSyUt" version="21.5.2" type="device">
  <diagram name="Page-1" id="MupfvHHFBMFo2o1cK1Xl">
    <mxGraphModel dx="954" dy="512" grid="1" gridSize="10" guides="1" tooltips="1" connect="1" arrows="1" fold="1" page="1" pageScale="1" pageWidth="827" pageHeight="1169" math="0" shadow="0">
      <root>
        <mxCell id="0" />
        <mxCell id="1" parent="0" />
        <mxCell id="FtzMLWEvTK-XO65rmCU0-1" value="" style="shape=umlLifeline;perimeter=lifelinePerimeter;whiteSpace=wrap;html=1;container=1;dropTarget=0;collapsible=0;recursiveResize=0;outlineConnect=0;portConstraint=eastwest;newEdgeStyle={&quot;edgeStyle&quot;:&quot;elbowEdgeStyle&quot;,&quot;elbow&quot;:&quot;vertical&quot;,&quot;curved&quot;:0,&quot;rounded&quot;:0};participant=umlActor;" parent="1" vertex="1">
          <mxGeometry x="230" y="60" width="20" height="610" as="geometry" />
        </mxCell>
        <mxCell id="FtzMLWEvTK-XO65rmCU0-2" value="Sistema" style="shape=umlLifeline;perimeter=lifelinePerimeter;whiteSpace=wrap;html=1;container=1;dropTarget=0;collapsible=0;recursiveResize=0;outlineConnect=0;portConstraint=eastwest;newEdgeStyle={&quot;edgeStyle&quot;:&quot;elbowEdgeStyle&quot;,&quot;elbow&quot;:&quot;vertical&quot;,&quot;curved&quot;:0,&quot;rounded&quot;:0};" parent="1" vertex="1">
          <mxGeometry x="470" y="60" width="100" height="550" as="geometry" />
        </mxCell>
        <mxCell id="FtzMLWEvTK-XO65rmCU0-3" value="ALT" style="shape=umlFrame;whiteSpace=wrap;html=1;pointerEvents=0;fillColor=#fff2cc;strokeColor=#d6b656;" parent="1" vertex="1">
          <mxGeometry x="160" y="170" width="440" height="370" as="geometry" />
        </mxCell>
        <mxCell id="FtzMLWEvTK-XO65rmCU0-4" value="" style="endArrow=none;endFill=0;endSize=12;html=1;rounded=0;" parent="1" edge="1">
          <mxGeometry width="160" relative="1" as="geometry">
            <mxPoint x="600" y="354.5" as="sourcePoint" />
            <mxPoint x="160" y="354.5" as="targetPoint" />
          </mxGeometry>
        </mxCell>
        <mxCell id="FtzMLWEvTK-XO65rmCU0-7" value="" style="endArrow=none;endFill=0;endSize=12;html=1;rounded=0;" parent="1" edge="1">
          <mxGeometry width="160" relative="1" as="geometry">
            <mxPoint x="580" y="470" as="sourcePoint" />
            <mxPoint x="170" y="470" as="targetPoint" />
          </mxGeometry>
        </mxCell>
        <mxCell id="FtzMLWEvTK-XO65rmCU0-11" value="" style="group;fillColor=none;strokeColor=#FFE599;" parent="1" vertex="1" connectable="0">
          <mxGeometry x="170" y="390" width="410" height="150" as="geometry" />
        </mxCell>
        <mxCell id="FtzMLWEvTK-XO65rmCU0-12" value="ALT" style="shape=umlFrame;whiteSpace=wrap;html=1;pointerEvents=0;" parent="FtzMLWEvTK-XO65rmCU0-11" vertex="1">
          <mxGeometry y="35.294117647058826" width="410" height="114.70588235294117" as="geometry" />
        </mxCell>
        <mxCell id="FtzMLWEvTK-XO65rmCU0-13" value="propostaModifica(Servizio, Ricetta, Commento)" style="html=1;verticalAlign=bottom;endArrow=block;edgeStyle=elbowEdgeStyle;elbow=vertical;curved=0;rounded=0;" parent="FtzMLWEvTK-XO65rmCU0-11" edge="1">
          <mxGeometry width="80" relative="1" as="geometry">
            <mxPoint x="65.25" y="26.468983957219244" as="sourcePoint" />
            <mxPoint x="344.75" y="26.629411764705882" as="targetPoint" />
          </mxGeometry>
        </mxCell>
        <mxCell id="FtzMLWEvTK-XO65rmCU0-14" value="operazione completata" style="html=1;verticalAlign=bottom;endArrow=none;edgeStyle=elbowEdgeStyle;elbow=vertical;curved=0;rounded=0;endFill=0;startArrow=block;startFill=1;" parent="1" edge="1">
          <mxGeometry width="80" relative="1" as="geometry">
            <mxPoint x="239.5" y="452.72727272727275" as="sourcePoint" />
            <mxPoint x="519.5" y="452.72727272727275" as="targetPoint" />
            <Array as="points">
              <mxPoint x="410" y="452.72727272727275" />
            </Array>
          </mxGeometry>
        </mxCell>
        <mxCell id="FtzMLWEvTK-XO65rmCU0-16" value="il menù è associato ad un evento in corso" style="html=1;verticalAlign=bottom;endArrow=none;edgeStyle=elbowEdgeStyle;elbow=vertical;curved=0;rounded=0;endFill=0;startArrow=block;startFill=1;" parent="1" edge="1">
          <mxGeometry width="80" relative="1" as="geometry">
            <mxPoint x="240" y="500.27" as="sourcePoint" />
            <mxPoint x="520" y="500.27" as="targetPoint" />
            <Array as="points">
              <mxPoint x="410" y="499.99727272727273" />
            </Array>
          </mxGeometry>
        </mxCell>
        <mxCell id="FtzMLWEvTK-XO65rmCU0-17" value="" style="shape=umlDestroy;whiteSpace=wrap;html=1;strokeWidth=3;targetShapes=umlLifeline;" parent="1" vertex="1">
          <mxGeometry x="507.5" y="510" width="25" height="20" as="geometry" />
        </mxCell>
        <mxCell id="FtzMLWEvTK-XO65rmCU0-6" value="LOOP" style="shape=umlFrame;whiteSpace=wrap;html=1;pointerEvents=0;fillColor=#dae8fc;strokeColor=#6c8ebf;" parent="1" vertex="1">
          <mxGeometry x="130" y="130" width="480" height="470" as="geometry" />
        </mxCell>
        <mxCell id="FtzMLWEvTK-XO65rmCU0-8" value="approvazioneMenu(Servizio)" style="html=1;verticalAlign=bottom;endArrow=block;edgeStyle=elbowEdgeStyle;elbow=vertical;curved=0;rounded=0;" parent="1" edge="1">
          <mxGeometry width="80" relative="1" as="geometry">
            <mxPoint x="240.25" y="210" as="sourcePoint" />
            <mxPoint x="519.75" y="210" as="targetPoint" />
          </mxGeometry>
        </mxCell>
        <mxCell id="AN8X-UDvfsnQZithWcQc-9" value="ALT" style="shape=umlFrame;whiteSpace=wrap;html=1;pointerEvents=0;" vertex="1" parent="1">
          <mxGeometry x="175" y="220.00411764705885" width="410" height="114.70588235294117" as="geometry" />
        </mxCell>
        <mxCell id="AN8X-UDvfsnQZithWcQc-10" value="operazione completata" style="html=1;verticalAlign=bottom;endArrow=none;edgeStyle=elbowEdgeStyle;elbow=vertical;curved=0;rounded=0;endFill=0;startArrow=block;startFill=1;" edge="1" parent="1">
          <mxGeometry width="80" relative="1" as="geometry">
            <mxPoint x="240" y="247.43727272727276" as="sourcePoint" />
            <mxPoint x="520" y="247.43727272727276" as="targetPoint" />
            <Array as="points">
              <mxPoint x="410.5" y="247.43727272727276" />
            </Array>
          </mxGeometry>
        </mxCell>
        <mxCell id="AN8X-UDvfsnQZithWcQc-11" value="il menù è associato ad un evento in corso" style="html=1;verticalAlign=bottom;endArrow=none;edgeStyle=elbowEdgeStyle;elbow=vertical;curved=0;rounded=0;endFill=0;startArrow=block;startFill=1;" edge="1" parent="1">
          <mxGeometry width="80" relative="1" as="geometry">
            <mxPoint x="240" y="290.27000000000004" as="sourcePoint" />
            <mxPoint x="520" y="290.27000000000004" as="targetPoint" />
            <Array as="points">
              <mxPoint x="410" y="289.9972727272728" />
            </Array>
          </mxGeometry>
        </mxCell>
        <mxCell id="AN8X-UDvfsnQZithWcQc-12" value="" style="shape=umlDestroy;whiteSpace=wrap;html=1;strokeWidth=3;targetShapes=umlLifeline;" vertex="1" parent="1">
          <mxGeometry x="512.5" y="304.71000000000004" width="25" height="20" as="geometry" />
        </mxCell>
        <mxCell id="AN8X-UDvfsnQZithWcQc-13" value="" style="endArrow=none;endFill=0;endSize=12;html=1;rounded=0;" edge="1" parent="1">
          <mxGeometry width="160" relative="1" as="geometry">
            <mxPoint x="585" y="270" as="sourcePoint" />
            <mxPoint x="175" y="270" as="targetPoint" />
          </mxGeometry>
        </mxCell>
      </root>
    </mxGraphModel>
  </diagram>
</mxfile>
